%TF.GenerationSoftware,KiCad,Pcbnew,8.0.1*%
%TF.CreationDate,2024-04-29T14:13:33-04:00*%
%TF.ProjectId,kicad_pcb,6b696361-645f-4706-9362-2e6b69636164,rev?*%
%TF.SameCoordinates,Original*%
%TF.FileFunction,Legend,Top*%
%TF.FilePolarity,Positive*%
%FSLAX46Y46*%
G04 Gerber Fmt 4.6, Leading zero omitted, Abs format (unit mm)*
G04 Created by KiCad (PCBNEW 8.0.1) date 2024-04-29 14:13:33*
%MOMM*%
%LPD*%
G01*
G04 APERTURE LIST*
%ADD10C,0.150000*%
%ADD11C,0.254000*%
%ADD12C,0.120000*%
%ADD13C,0.000000*%
%ADD14C,0.200000*%
%ADD15C,0.250000*%
G04 APERTURE END LIST*
D10*
X145669819Y-85563220D02*
X144669819Y-85563220D01*
X144669819Y-85563220D02*
X144669819Y-85325125D01*
X144669819Y-85325125D02*
X144717438Y-85182268D01*
X144717438Y-85182268D02*
X144812676Y-85087030D01*
X144812676Y-85087030D02*
X144907914Y-85039411D01*
X144907914Y-85039411D02*
X145098390Y-84991792D01*
X145098390Y-84991792D02*
X145241247Y-84991792D01*
X145241247Y-84991792D02*
X145431723Y-85039411D01*
X145431723Y-85039411D02*
X145526961Y-85087030D01*
X145526961Y-85087030D02*
X145622200Y-85182268D01*
X145622200Y-85182268D02*
X145669819Y-85325125D01*
X145669819Y-85325125D02*
X145669819Y-85563220D01*
X145384104Y-84610839D02*
X145384104Y-84134649D01*
X145669819Y-84706077D02*
X144669819Y-84372744D01*
X144669819Y-84372744D02*
X145669819Y-84039411D01*
X145574580Y-83134649D02*
X145622200Y-83182268D01*
X145622200Y-83182268D02*
X145669819Y-83325125D01*
X145669819Y-83325125D02*
X145669819Y-83420363D01*
X145669819Y-83420363D02*
X145622200Y-83563220D01*
X145622200Y-83563220D02*
X145526961Y-83658458D01*
X145526961Y-83658458D02*
X145431723Y-83706077D01*
X145431723Y-83706077D02*
X145241247Y-83753696D01*
X145241247Y-83753696D02*
X145098390Y-83753696D01*
X145098390Y-83753696D02*
X144907914Y-83706077D01*
X144907914Y-83706077D02*
X144812676Y-83658458D01*
X144812676Y-83658458D02*
X144717438Y-83563220D01*
X144717438Y-83563220D02*
X144669819Y-83420363D01*
X144669819Y-83420363D02*
X144669819Y-83325125D01*
X144669819Y-83325125D02*
X144717438Y-83182268D01*
X144717438Y-83182268D02*
X144765057Y-83134649D01*
X144669819Y-81753696D02*
X144669819Y-81658458D01*
X144669819Y-81658458D02*
X144717438Y-81563220D01*
X144717438Y-81563220D02*
X144765057Y-81515601D01*
X144765057Y-81515601D02*
X144860295Y-81467982D01*
X144860295Y-81467982D02*
X145050771Y-81420363D01*
X145050771Y-81420363D02*
X145288866Y-81420363D01*
X145288866Y-81420363D02*
X145479342Y-81467982D01*
X145479342Y-81467982D02*
X145574580Y-81515601D01*
X145574580Y-81515601D02*
X145622200Y-81563220D01*
X145622200Y-81563220D02*
X145669819Y-81658458D01*
X145669819Y-81658458D02*
X145669819Y-81753696D01*
X145669819Y-81753696D02*
X145622200Y-81848934D01*
X145622200Y-81848934D02*
X145574580Y-81896553D01*
X145574580Y-81896553D02*
X145479342Y-81944172D01*
X145479342Y-81944172D02*
X145288866Y-81991791D01*
X145288866Y-81991791D02*
X145050771Y-81991791D01*
X145050771Y-81991791D02*
X144860295Y-81944172D01*
X144860295Y-81944172D02*
X144765057Y-81896553D01*
X144765057Y-81896553D02*
X144717438Y-81848934D01*
X144717438Y-81848934D02*
X144669819Y-81753696D01*
X145574580Y-80991791D02*
X145622200Y-80944172D01*
X145622200Y-80944172D02*
X145669819Y-80991791D01*
X145669819Y-80991791D02*
X145622200Y-81039410D01*
X145622200Y-81039410D02*
X145574580Y-80991791D01*
X145574580Y-80991791D02*
X145669819Y-80991791D01*
X145574580Y-80515601D02*
X145622200Y-80467982D01*
X145622200Y-80467982D02*
X145669819Y-80515601D01*
X145669819Y-80515601D02*
X145622200Y-80563220D01*
X145622200Y-80563220D02*
X145574580Y-80515601D01*
X145574580Y-80515601D02*
X145669819Y-80515601D01*
X145669819Y-79515602D02*
X145669819Y-80087030D01*
X145669819Y-79801316D02*
X144669819Y-79801316D01*
X144669819Y-79801316D02*
X144812676Y-79896554D01*
X144812676Y-79896554D02*
X144907914Y-79991792D01*
X144907914Y-79991792D02*
X144955533Y-80087030D01*
X144669819Y-78896554D02*
X144669819Y-78801316D01*
X144669819Y-78801316D02*
X144717438Y-78706078D01*
X144717438Y-78706078D02*
X144765057Y-78658459D01*
X144765057Y-78658459D02*
X144860295Y-78610840D01*
X144860295Y-78610840D02*
X145050771Y-78563221D01*
X145050771Y-78563221D02*
X145288866Y-78563221D01*
X145288866Y-78563221D02*
X145479342Y-78610840D01*
X145479342Y-78610840D02*
X145574580Y-78658459D01*
X145574580Y-78658459D02*
X145622200Y-78706078D01*
X145622200Y-78706078D02*
X145669819Y-78801316D01*
X145669819Y-78801316D02*
X145669819Y-78896554D01*
X145669819Y-78896554D02*
X145622200Y-78991792D01*
X145622200Y-78991792D02*
X145574580Y-79039411D01*
X145574580Y-79039411D02*
X145479342Y-79087030D01*
X145479342Y-79087030D02*
X145288866Y-79134649D01*
X145288866Y-79134649D02*
X145050771Y-79134649D01*
X145050771Y-79134649D02*
X144860295Y-79087030D01*
X144860295Y-79087030D02*
X144765057Y-79039411D01*
X144765057Y-79039411D02*
X144717438Y-78991792D01*
X144717438Y-78991792D02*
X144669819Y-78896554D01*
X144669819Y-78277506D02*
X145669819Y-77944173D01*
X145669819Y-77944173D02*
X144669819Y-77610840D01*
X125360588Y-74667438D02*
X125265350Y-74619819D01*
X125265350Y-74619819D02*
X125122493Y-74619819D01*
X125122493Y-74619819D02*
X124979636Y-74667438D01*
X124979636Y-74667438D02*
X124884398Y-74762676D01*
X124884398Y-74762676D02*
X124836779Y-74857914D01*
X124836779Y-74857914D02*
X124789160Y-75048390D01*
X124789160Y-75048390D02*
X124789160Y-75191247D01*
X124789160Y-75191247D02*
X124836779Y-75381723D01*
X124836779Y-75381723D02*
X124884398Y-75476961D01*
X124884398Y-75476961D02*
X124979636Y-75572200D01*
X124979636Y-75572200D02*
X125122493Y-75619819D01*
X125122493Y-75619819D02*
X125217731Y-75619819D01*
X125217731Y-75619819D02*
X125360588Y-75572200D01*
X125360588Y-75572200D02*
X125408207Y-75524580D01*
X125408207Y-75524580D02*
X125408207Y-75191247D01*
X125408207Y-75191247D02*
X125217731Y-75191247D01*
X125836779Y-75619819D02*
X125836779Y-74619819D01*
X125836779Y-74619819D02*
X126408207Y-75619819D01*
X126408207Y-75619819D02*
X126408207Y-74619819D01*
X126884398Y-75619819D02*
X126884398Y-74619819D01*
X126884398Y-74619819D02*
X127122493Y-74619819D01*
X127122493Y-74619819D02*
X127265350Y-74667438D01*
X127265350Y-74667438D02*
X127360588Y-74762676D01*
X127360588Y-74762676D02*
X127408207Y-74857914D01*
X127408207Y-74857914D02*
X127455826Y-75048390D01*
X127455826Y-75048390D02*
X127455826Y-75191247D01*
X127455826Y-75191247D02*
X127408207Y-75381723D01*
X127408207Y-75381723D02*
X127360588Y-75476961D01*
X127360588Y-75476961D02*
X127265350Y-75572200D01*
X127265350Y-75572200D02*
X127122493Y-75619819D01*
X127122493Y-75619819D02*
X126884398Y-75619819D01*
X136360588Y-74917438D02*
X136265350Y-74869819D01*
X136265350Y-74869819D02*
X136122493Y-74869819D01*
X136122493Y-74869819D02*
X135979636Y-74917438D01*
X135979636Y-74917438D02*
X135884398Y-75012676D01*
X135884398Y-75012676D02*
X135836779Y-75107914D01*
X135836779Y-75107914D02*
X135789160Y-75298390D01*
X135789160Y-75298390D02*
X135789160Y-75441247D01*
X135789160Y-75441247D02*
X135836779Y-75631723D01*
X135836779Y-75631723D02*
X135884398Y-75726961D01*
X135884398Y-75726961D02*
X135979636Y-75822200D01*
X135979636Y-75822200D02*
X136122493Y-75869819D01*
X136122493Y-75869819D02*
X136217731Y-75869819D01*
X136217731Y-75869819D02*
X136360588Y-75822200D01*
X136360588Y-75822200D02*
X136408207Y-75774580D01*
X136408207Y-75774580D02*
X136408207Y-75441247D01*
X136408207Y-75441247D02*
X136217731Y-75441247D01*
X136836779Y-75869819D02*
X136836779Y-74869819D01*
X136836779Y-74869819D02*
X137408207Y-75869819D01*
X137408207Y-75869819D02*
X137408207Y-74869819D01*
X137884398Y-75869819D02*
X137884398Y-74869819D01*
X137884398Y-74869819D02*
X138122493Y-74869819D01*
X138122493Y-74869819D02*
X138265350Y-74917438D01*
X138265350Y-74917438D02*
X138360588Y-75012676D01*
X138360588Y-75012676D02*
X138408207Y-75107914D01*
X138408207Y-75107914D02*
X138455826Y-75298390D01*
X138455826Y-75298390D02*
X138455826Y-75441247D01*
X138455826Y-75441247D02*
X138408207Y-75631723D01*
X138408207Y-75631723D02*
X138360588Y-75726961D01*
X138360588Y-75726961D02*
X138265350Y-75822200D01*
X138265350Y-75822200D02*
X138122493Y-75869819D01*
X138122493Y-75869819D02*
X137884398Y-75869819D01*
X131027255Y-74619819D02*
X131122493Y-74619819D01*
X131122493Y-74619819D02*
X131217731Y-74667438D01*
X131217731Y-74667438D02*
X131265350Y-74715057D01*
X131265350Y-74715057D02*
X131312969Y-74810295D01*
X131312969Y-74810295D02*
X131360588Y-75000771D01*
X131360588Y-75000771D02*
X131360588Y-75238866D01*
X131360588Y-75238866D02*
X131312969Y-75429342D01*
X131312969Y-75429342D02*
X131265350Y-75524580D01*
X131265350Y-75524580D02*
X131217731Y-75572200D01*
X131217731Y-75572200D02*
X131122493Y-75619819D01*
X131122493Y-75619819D02*
X131027255Y-75619819D01*
X131027255Y-75619819D02*
X130932017Y-75572200D01*
X130932017Y-75572200D02*
X130884398Y-75524580D01*
X130884398Y-75524580D02*
X130836779Y-75429342D01*
X130836779Y-75429342D02*
X130789160Y-75238866D01*
X130789160Y-75238866D02*
X130789160Y-75000771D01*
X130789160Y-75000771D02*
X130836779Y-74810295D01*
X130836779Y-74810295D02*
X130884398Y-74715057D01*
X130884398Y-74715057D02*
X130932017Y-74667438D01*
X130932017Y-74667438D02*
X131027255Y-74619819D01*
X131789160Y-75524580D02*
X131836779Y-75572200D01*
X131836779Y-75572200D02*
X131789160Y-75619819D01*
X131789160Y-75619819D02*
X131741541Y-75572200D01*
X131741541Y-75572200D02*
X131789160Y-75524580D01*
X131789160Y-75524580D02*
X131789160Y-75619819D01*
X132265350Y-75524580D02*
X132312969Y-75572200D01*
X132312969Y-75572200D02*
X132265350Y-75619819D01*
X132265350Y-75619819D02*
X132217731Y-75572200D01*
X132217731Y-75572200D02*
X132265350Y-75524580D01*
X132265350Y-75524580D02*
X132265350Y-75619819D01*
X133265349Y-75619819D02*
X132693921Y-75619819D01*
X132979635Y-75619819D02*
X132979635Y-74619819D01*
X132979635Y-74619819D02*
X132884397Y-74762676D01*
X132884397Y-74762676D02*
X132789159Y-74857914D01*
X132789159Y-74857914D02*
X132693921Y-74905533D01*
X133884397Y-74619819D02*
X133979635Y-74619819D01*
X133979635Y-74619819D02*
X134074873Y-74667438D01*
X134074873Y-74667438D02*
X134122492Y-74715057D01*
X134122492Y-74715057D02*
X134170111Y-74810295D01*
X134170111Y-74810295D02*
X134217730Y-75000771D01*
X134217730Y-75000771D02*
X134217730Y-75238866D01*
X134217730Y-75238866D02*
X134170111Y-75429342D01*
X134170111Y-75429342D02*
X134122492Y-75524580D01*
X134122492Y-75524580D02*
X134074873Y-75572200D01*
X134074873Y-75572200D02*
X133979635Y-75619819D01*
X133979635Y-75619819D02*
X133884397Y-75619819D01*
X133884397Y-75619819D02*
X133789159Y-75572200D01*
X133789159Y-75572200D02*
X133741540Y-75524580D01*
X133741540Y-75524580D02*
X133693921Y-75429342D01*
X133693921Y-75429342D02*
X133646302Y-75238866D01*
X133646302Y-75238866D02*
X133646302Y-75000771D01*
X133646302Y-75000771D02*
X133693921Y-74810295D01*
X133693921Y-74810295D02*
X133741540Y-74715057D01*
X133741540Y-74715057D02*
X133789159Y-74667438D01*
X133789159Y-74667438D02*
X133884397Y-74619819D01*
X120991541Y-74619819D02*
X121610588Y-74619819D01*
X121610588Y-74619819D02*
X121277255Y-75000771D01*
X121277255Y-75000771D02*
X121420112Y-75000771D01*
X121420112Y-75000771D02*
X121515350Y-75048390D01*
X121515350Y-75048390D02*
X121562969Y-75096009D01*
X121562969Y-75096009D02*
X121610588Y-75191247D01*
X121610588Y-75191247D02*
X121610588Y-75429342D01*
X121610588Y-75429342D02*
X121562969Y-75524580D01*
X121562969Y-75524580D02*
X121515350Y-75572200D01*
X121515350Y-75572200D02*
X121420112Y-75619819D01*
X121420112Y-75619819D02*
X121134398Y-75619819D01*
X121134398Y-75619819D02*
X121039160Y-75572200D01*
X121039160Y-75572200D02*
X120991541Y-75524580D01*
X122039160Y-75524580D02*
X122086779Y-75572200D01*
X122086779Y-75572200D02*
X122039160Y-75619819D01*
X122039160Y-75619819D02*
X121991541Y-75572200D01*
X121991541Y-75572200D02*
X122039160Y-75524580D01*
X122039160Y-75524580D02*
X122039160Y-75619819D01*
X122420112Y-74619819D02*
X123039159Y-74619819D01*
X123039159Y-74619819D02*
X122705826Y-75000771D01*
X122705826Y-75000771D02*
X122848683Y-75000771D01*
X122848683Y-75000771D02*
X122943921Y-75048390D01*
X122943921Y-75048390D02*
X122991540Y-75096009D01*
X122991540Y-75096009D02*
X123039159Y-75191247D01*
X123039159Y-75191247D02*
X123039159Y-75429342D01*
X123039159Y-75429342D02*
X122991540Y-75524580D01*
X122991540Y-75524580D02*
X122943921Y-75572200D01*
X122943921Y-75572200D02*
X122848683Y-75619819D01*
X122848683Y-75619819D02*
X122562969Y-75619819D01*
X122562969Y-75619819D02*
X122467731Y-75572200D01*
X122467731Y-75572200D02*
X122420112Y-75524580D01*
X112593922Y-90569819D02*
X112927255Y-91569819D01*
X112927255Y-91569819D02*
X113260588Y-90569819D01*
X113593922Y-91569819D02*
X113593922Y-90569819D01*
X114070112Y-91569819D02*
X114070112Y-90569819D01*
X114070112Y-90569819D02*
X114641540Y-91569819D01*
X114641540Y-91569819D02*
X114641540Y-90569819D01*
X115832017Y-90665057D02*
X115879636Y-90617438D01*
X115879636Y-90617438D02*
X115974874Y-90569819D01*
X115974874Y-90569819D02*
X116212969Y-90569819D01*
X116212969Y-90569819D02*
X116308207Y-90617438D01*
X116308207Y-90617438D02*
X116355826Y-90665057D01*
X116355826Y-90665057D02*
X116403445Y-90760295D01*
X116403445Y-90760295D02*
X116403445Y-90855533D01*
X116403445Y-90855533D02*
X116355826Y-90998390D01*
X116355826Y-90998390D02*
X115784398Y-91569819D01*
X115784398Y-91569819D02*
X116403445Y-91569819D01*
X117260588Y-90903152D02*
X117260588Y-91569819D01*
X117022493Y-90522200D02*
X116784398Y-91236485D01*
X116784398Y-91236485D02*
X117403445Y-91236485D01*
X117641541Y-90569819D02*
X117974874Y-91569819D01*
X117974874Y-91569819D02*
X118308207Y-90569819D01*
X118641541Y-91569819D02*
X118641541Y-90569819D01*
X118641541Y-90569819D02*
X118879636Y-90569819D01*
X118879636Y-90569819D02*
X119022493Y-90617438D01*
X119022493Y-90617438D02*
X119117731Y-90712676D01*
X119117731Y-90712676D02*
X119165350Y-90807914D01*
X119165350Y-90807914D02*
X119212969Y-90998390D01*
X119212969Y-90998390D02*
X119212969Y-91141247D01*
X119212969Y-91141247D02*
X119165350Y-91331723D01*
X119165350Y-91331723D02*
X119117731Y-91426961D01*
X119117731Y-91426961D02*
X119022493Y-91522200D01*
X119022493Y-91522200D02*
X118879636Y-91569819D01*
X118879636Y-91569819D02*
X118641541Y-91569819D01*
X120212969Y-91474580D02*
X120165350Y-91522200D01*
X120165350Y-91522200D02*
X120022493Y-91569819D01*
X120022493Y-91569819D02*
X119927255Y-91569819D01*
X119927255Y-91569819D02*
X119784398Y-91522200D01*
X119784398Y-91522200D02*
X119689160Y-91426961D01*
X119689160Y-91426961D02*
X119641541Y-91331723D01*
X119641541Y-91331723D02*
X119593922Y-91141247D01*
X119593922Y-91141247D02*
X119593922Y-90998390D01*
X119593922Y-90998390D02*
X119641541Y-90807914D01*
X119641541Y-90807914D02*
X119689160Y-90712676D01*
X119689160Y-90712676D02*
X119784398Y-90617438D01*
X119784398Y-90617438D02*
X119927255Y-90569819D01*
X119927255Y-90569819D02*
X120022493Y-90569819D01*
X120022493Y-90569819D02*
X120165350Y-90617438D01*
X120165350Y-90617438D02*
X120212969Y-90665057D01*
X116360588Y-84917438D02*
X116265350Y-84869819D01*
X116265350Y-84869819D02*
X116122493Y-84869819D01*
X116122493Y-84869819D02*
X115979636Y-84917438D01*
X115979636Y-84917438D02*
X115884398Y-85012676D01*
X115884398Y-85012676D02*
X115836779Y-85107914D01*
X115836779Y-85107914D02*
X115789160Y-85298390D01*
X115789160Y-85298390D02*
X115789160Y-85441247D01*
X115789160Y-85441247D02*
X115836779Y-85631723D01*
X115836779Y-85631723D02*
X115884398Y-85726961D01*
X115884398Y-85726961D02*
X115979636Y-85822200D01*
X115979636Y-85822200D02*
X116122493Y-85869819D01*
X116122493Y-85869819D02*
X116217731Y-85869819D01*
X116217731Y-85869819D02*
X116360588Y-85822200D01*
X116360588Y-85822200D02*
X116408207Y-85774580D01*
X116408207Y-85774580D02*
X116408207Y-85441247D01*
X116408207Y-85441247D02*
X116217731Y-85441247D01*
X116836779Y-85869819D02*
X116836779Y-84869819D01*
X116836779Y-84869819D02*
X117408207Y-85869819D01*
X117408207Y-85869819D02*
X117408207Y-84869819D01*
X117884398Y-85869819D02*
X117884398Y-84869819D01*
X117884398Y-84869819D02*
X118122493Y-84869819D01*
X118122493Y-84869819D02*
X118265350Y-84917438D01*
X118265350Y-84917438D02*
X118360588Y-85012676D01*
X118360588Y-85012676D02*
X118408207Y-85107914D01*
X118408207Y-85107914D02*
X118455826Y-85298390D01*
X118455826Y-85298390D02*
X118455826Y-85441247D01*
X118455826Y-85441247D02*
X118408207Y-85631723D01*
X118408207Y-85631723D02*
X118360588Y-85726961D01*
X118360588Y-85726961D02*
X118265350Y-85822200D01*
X118265350Y-85822200D02*
X118122493Y-85869819D01*
X118122493Y-85869819D02*
X117884398Y-85869819D01*
X115789160Y-80822200D02*
X115932017Y-80869819D01*
X115932017Y-80869819D02*
X116170112Y-80869819D01*
X116170112Y-80869819D02*
X116265350Y-80822200D01*
X116265350Y-80822200D02*
X116312969Y-80774580D01*
X116312969Y-80774580D02*
X116360588Y-80679342D01*
X116360588Y-80679342D02*
X116360588Y-80584104D01*
X116360588Y-80584104D02*
X116312969Y-80488866D01*
X116312969Y-80488866D02*
X116265350Y-80441247D01*
X116265350Y-80441247D02*
X116170112Y-80393628D01*
X116170112Y-80393628D02*
X115979636Y-80346009D01*
X115979636Y-80346009D02*
X115884398Y-80298390D01*
X115884398Y-80298390D02*
X115836779Y-80250771D01*
X115836779Y-80250771D02*
X115789160Y-80155533D01*
X115789160Y-80155533D02*
X115789160Y-80060295D01*
X115789160Y-80060295D02*
X115836779Y-79965057D01*
X115836779Y-79965057D02*
X115884398Y-79917438D01*
X115884398Y-79917438D02*
X115979636Y-79869819D01*
X115979636Y-79869819D02*
X116217731Y-79869819D01*
X116217731Y-79869819D02*
X116360588Y-79917438D01*
X117360588Y-80774580D02*
X117312969Y-80822200D01*
X117312969Y-80822200D02*
X117170112Y-80869819D01*
X117170112Y-80869819D02*
X117074874Y-80869819D01*
X117074874Y-80869819D02*
X116932017Y-80822200D01*
X116932017Y-80822200D02*
X116836779Y-80726961D01*
X116836779Y-80726961D02*
X116789160Y-80631723D01*
X116789160Y-80631723D02*
X116741541Y-80441247D01*
X116741541Y-80441247D02*
X116741541Y-80298390D01*
X116741541Y-80298390D02*
X116789160Y-80107914D01*
X116789160Y-80107914D02*
X116836779Y-80012676D01*
X116836779Y-80012676D02*
X116932017Y-79917438D01*
X116932017Y-79917438D02*
X117074874Y-79869819D01*
X117074874Y-79869819D02*
X117170112Y-79869819D01*
X117170112Y-79869819D02*
X117312969Y-79917438D01*
X117312969Y-79917438D02*
X117360588Y-79965057D01*
X118265350Y-80869819D02*
X117789160Y-80869819D01*
X117789160Y-80869819D02*
X117789160Y-79869819D01*
X115789160Y-75322200D02*
X115932017Y-75369819D01*
X115932017Y-75369819D02*
X116170112Y-75369819D01*
X116170112Y-75369819D02*
X116265350Y-75322200D01*
X116265350Y-75322200D02*
X116312969Y-75274580D01*
X116312969Y-75274580D02*
X116360588Y-75179342D01*
X116360588Y-75179342D02*
X116360588Y-75084104D01*
X116360588Y-75084104D02*
X116312969Y-74988866D01*
X116312969Y-74988866D02*
X116265350Y-74941247D01*
X116265350Y-74941247D02*
X116170112Y-74893628D01*
X116170112Y-74893628D02*
X115979636Y-74846009D01*
X115979636Y-74846009D02*
X115884398Y-74798390D01*
X115884398Y-74798390D02*
X115836779Y-74750771D01*
X115836779Y-74750771D02*
X115789160Y-74655533D01*
X115789160Y-74655533D02*
X115789160Y-74560295D01*
X115789160Y-74560295D02*
X115836779Y-74465057D01*
X115836779Y-74465057D02*
X115884398Y-74417438D01*
X115884398Y-74417438D02*
X115979636Y-74369819D01*
X115979636Y-74369819D02*
X116217731Y-74369819D01*
X116217731Y-74369819D02*
X116360588Y-74417438D01*
X116789160Y-75369819D02*
X116789160Y-74369819D01*
X116789160Y-74369819D02*
X117027255Y-74369819D01*
X117027255Y-74369819D02*
X117170112Y-74417438D01*
X117170112Y-74417438D02*
X117265350Y-74512676D01*
X117265350Y-74512676D02*
X117312969Y-74607914D01*
X117312969Y-74607914D02*
X117360588Y-74798390D01*
X117360588Y-74798390D02*
X117360588Y-74941247D01*
X117360588Y-74941247D02*
X117312969Y-75131723D01*
X117312969Y-75131723D02*
X117265350Y-75226961D01*
X117265350Y-75226961D02*
X117170112Y-75322200D01*
X117170112Y-75322200D02*
X117027255Y-75369819D01*
X117027255Y-75369819D02*
X116789160Y-75369819D01*
X117741541Y-75084104D02*
X118217731Y-75084104D01*
X117646303Y-75369819D02*
X117979636Y-74369819D01*
X117979636Y-74369819D02*
X118312969Y-75369819D01*
D11*
X138260237Y-83074318D02*
X138260237Y-81804318D01*
X139590714Y-82953365D02*
X139530238Y-83013842D01*
X139530238Y-83013842D02*
X139348809Y-83074318D01*
X139348809Y-83074318D02*
X139227857Y-83074318D01*
X139227857Y-83074318D02*
X139046428Y-83013842D01*
X139046428Y-83013842D02*
X138925476Y-82892889D01*
X138925476Y-82892889D02*
X138864999Y-82771937D01*
X138864999Y-82771937D02*
X138804523Y-82530032D01*
X138804523Y-82530032D02*
X138804523Y-82348603D01*
X138804523Y-82348603D02*
X138864999Y-82106699D01*
X138864999Y-82106699D02*
X138925476Y-81985746D01*
X138925476Y-81985746D02*
X139046428Y-81864794D01*
X139046428Y-81864794D02*
X139227857Y-81804318D01*
X139227857Y-81804318D02*
X139348809Y-81804318D01*
X139348809Y-81804318D02*
X139530238Y-81864794D01*
X139530238Y-81864794D02*
X139590714Y-81925270D01*
X140800238Y-83074318D02*
X140074523Y-83074318D01*
X140437380Y-83074318D02*
X140437380Y-81804318D01*
X140437380Y-81804318D02*
X140316428Y-81985746D01*
X140316428Y-81985746D02*
X140195476Y-82106699D01*
X140195476Y-82106699D02*
X140074523Y-82167175D01*
X120260237Y-81074318D02*
X120260237Y-79804318D01*
X121590714Y-80953365D02*
X121530238Y-81013842D01*
X121530238Y-81013842D02*
X121348809Y-81074318D01*
X121348809Y-81074318D02*
X121227857Y-81074318D01*
X121227857Y-81074318D02*
X121046428Y-81013842D01*
X121046428Y-81013842D02*
X120925476Y-80892889D01*
X120925476Y-80892889D02*
X120864999Y-80771937D01*
X120864999Y-80771937D02*
X120804523Y-80530032D01*
X120804523Y-80530032D02*
X120804523Y-80348603D01*
X120804523Y-80348603D02*
X120864999Y-80106699D01*
X120864999Y-80106699D02*
X120925476Y-79985746D01*
X120925476Y-79985746D02*
X121046428Y-79864794D01*
X121046428Y-79864794D02*
X121227857Y-79804318D01*
X121227857Y-79804318D02*
X121348809Y-79804318D01*
X121348809Y-79804318D02*
X121530238Y-79864794D01*
X121530238Y-79864794D02*
X121590714Y-79925270D01*
X122074523Y-79925270D02*
X122134999Y-79864794D01*
X122134999Y-79864794D02*
X122255952Y-79804318D01*
X122255952Y-79804318D02*
X122558333Y-79804318D01*
X122558333Y-79804318D02*
X122679285Y-79864794D01*
X122679285Y-79864794D02*
X122739761Y-79925270D01*
X122739761Y-79925270D02*
X122800238Y-80046222D01*
X122800238Y-80046222D02*
X122800238Y-80167175D01*
X122800238Y-80167175D02*
X122739761Y-80348603D01*
X122739761Y-80348603D02*
X122014047Y-81074318D01*
X122014047Y-81074318D02*
X122800238Y-81074318D01*
X139538333Y-85324318D02*
X139114999Y-84719556D01*
X138812618Y-85324318D02*
X138812618Y-84054318D01*
X138812618Y-84054318D02*
X139296428Y-84054318D01*
X139296428Y-84054318D02*
X139417380Y-84114794D01*
X139417380Y-84114794D02*
X139477857Y-84175270D01*
X139477857Y-84175270D02*
X139538333Y-84296222D01*
X139538333Y-84296222D02*
X139538333Y-84477651D01*
X139538333Y-84477651D02*
X139477857Y-84598603D01*
X139477857Y-84598603D02*
X139417380Y-84659080D01*
X139417380Y-84659080D02*
X139296428Y-84719556D01*
X139296428Y-84719556D02*
X138812618Y-84719556D01*
X140626904Y-84477651D02*
X140626904Y-85324318D01*
X140324523Y-83993842D02*
X140022142Y-84900984D01*
X140022142Y-84900984D02*
X140808333Y-84900984D01*
X139538333Y-87324318D02*
X139114999Y-86719556D01*
X138812618Y-87324318D02*
X138812618Y-86054318D01*
X138812618Y-86054318D02*
X139296428Y-86054318D01*
X139296428Y-86054318D02*
X139417380Y-86114794D01*
X139417380Y-86114794D02*
X139477857Y-86175270D01*
X139477857Y-86175270D02*
X139538333Y-86296222D01*
X139538333Y-86296222D02*
X139538333Y-86477651D01*
X139538333Y-86477651D02*
X139477857Y-86598603D01*
X139477857Y-86598603D02*
X139417380Y-86659080D01*
X139417380Y-86659080D02*
X139296428Y-86719556D01*
X139296428Y-86719556D02*
X138812618Y-86719556D01*
X139961666Y-86054318D02*
X140747857Y-86054318D01*
X140747857Y-86054318D02*
X140324523Y-86538127D01*
X140324523Y-86538127D02*
X140505952Y-86538127D01*
X140505952Y-86538127D02*
X140626904Y-86598603D01*
X140626904Y-86598603D02*
X140687380Y-86659080D01*
X140687380Y-86659080D02*
X140747857Y-86780032D01*
X140747857Y-86780032D02*
X140747857Y-87082413D01*
X140747857Y-87082413D02*
X140687380Y-87203365D01*
X140687380Y-87203365D02*
X140626904Y-87263842D01*
X140626904Y-87263842D02*
X140505952Y-87324318D01*
X140505952Y-87324318D02*
X140143095Y-87324318D01*
X140143095Y-87324318D02*
X140022142Y-87263842D01*
X140022142Y-87263842D02*
X139961666Y-87203365D01*
D10*
X130833333Y-79704819D02*
X130500000Y-79228628D01*
X130261905Y-79704819D02*
X130261905Y-78704819D01*
X130261905Y-78704819D02*
X130642857Y-78704819D01*
X130642857Y-78704819D02*
X130738095Y-78752438D01*
X130738095Y-78752438D02*
X130785714Y-78800057D01*
X130785714Y-78800057D02*
X130833333Y-78895295D01*
X130833333Y-78895295D02*
X130833333Y-79038152D01*
X130833333Y-79038152D02*
X130785714Y-79133390D01*
X130785714Y-79133390D02*
X130738095Y-79181009D01*
X130738095Y-79181009D02*
X130642857Y-79228628D01*
X130642857Y-79228628D02*
X130261905Y-79228628D01*
X131214286Y-78800057D02*
X131261905Y-78752438D01*
X131261905Y-78752438D02*
X131357143Y-78704819D01*
X131357143Y-78704819D02*
X131595238Y-78704819D01*
X131595238Y-78704819D02*
X131690476Y-78752438D01*
X131690476Y-78752438D02*
X131738095Y-78800057D01*
X131738095Y-78800057D02*
X131785714Y-78895295D01*
X131785714Y-78895295D02*
X131785714Y-78990533D01*
X131785714Y-78990533D02*
X131738095Y-79133390D01*
X131738095Y-79133390D02*
X131166667Y-79704819D01*
X131166667Y-79704819D02*
X131785714Y-79704819D01*
D11*
X136288333Y-83074318D02*
X135864999Y-82469556D01*
X135562618Y-83074318D02*
X135562618Y-81804318D01*
X135562618Y-81804318D02*
X136046428Y-81804318D01*
X136046428Y-81804318D02*
X136167380Y-81864794D01*
X136167380Y-81864794D02*
X136227857Y-81925270D01*
X136227857Y-81925270D02*
X136288333Y-82046222D01*
X136288333Y-82046222D02*
X136288333Y-82227651D01*
X136288333Y-82227651D02*
X136227857Y-82348603D01*
X136227857Y-82348603D02*
X136167380Y-82409080D01*
X136167380Y-82409080D02*
X136046428Y-82469556D01*
X136046428Y-82469556D02*
X135562618Y-82469556D01*
X137497857Y-83074318D02*
X136772142Y-83074318D01*
X137134999Y-83074318D02*
X137134999Y-81804318D01*
X137134999Y-81804318D02*
X137014047Y-81985746D01*
X137014047Y-81985746D02*
X136893095Y-82106699D01*
X136893095Y-82106699D02*
X136772142Y-82167175D01*
X126760237Y-79574318D02*
X126760237Y-78304318D01*
X128090714Y-79453365D02*
X128030238Y-79513842D01*
X128030238Y-79513842D02*
X127848809Y-79574318D01*
X127848809Y-79574318D02*
X127727857Y-79574318D01*
X127727857Y-79574318D02*
X127546428Y-79513842D01*
X127546428Y-79513842D02*
X127425476Y-79392889D01*
X127425476Y-79392889D02*
X127364999Y-79271937D01*
X127364999Y-79271937D02*
X127304523Y-79030032D01*
X127304523Y-79030032D02*
X127304523Y-78848603D01*
X127304523Y-78848603D02*
X127364999Y-78606699D01*
X127364999Y-78606699D02*
X127425476Y-78485746D01*
X127425476Y-78485746D02*
X127546428Y-78364794D01*
X127546428Y-78364794D02*
X127727857Y-78304318D01*
X127727857Y-78304318D02*
X127848809Y-78304318D01*
X127848809Y-78304318D02*
X128030238Y-78364794D01*
X128030238Y-78364794D02*
X128090714Y-78425270D01*
X128514047Y-78304318D02*
X129300238Y-78304318D01*
X129300238Y-78304318D02*
X128876904Y-78788127D01*
X128876904Y-78788127D02*
X129058333Y-78788127D01*
X129058333Y-78788127D02*
X129179285Y-78848603D01*
X129179285Y-78848603D02*
X129239761Y-78909080D01*
X129239761Y-78909080D02*
X129300238Y-79030032D01*
X129300238Y-79030032D02*
X129300238Y-79332413D01*
X129300238Y-79332413D02*
X129239761Y-79453365D01*
X129239761Y-79453365D02*
X129179285Y-79513842D01*
X129179285Y-79513842D02*
X129058333Y-79574318D01*
X129058333Y-79574318D02*
X128695476Y-79574318D01*
X128695476Y-79574318D02*
X128574523Y-79513842D01*
X128574523Y-79513842D02*
X128514047Y-79453365D01*
X134288333Y-89953365D02*
X134227857Y-90013842D01*
X134227857Y-90013842D02*
X134046428Y-90074318D01*
X134046428Y-90074318D02*
X133925476Y-90074318D01*
X133925476Y-90074318D02*
X133744047Y-90013842D01*
X133744047Y-90013842D02*
X133623095Y-89892889D01*
X133623095Y-89892889D02*
X133562618Y-89771937D01*
X133562618Y-89771937D02*
X133502142Y-89530032D01*
X133502142Y-89530032D02*
X133502142Y-89348603D01*
X133502142Y-89348603D02*
X133562618Y-89106699D01*
X133562618Y-89106699D02*
X133623095Y-88985746D01*
X133623095Y-88985746D02*
X133744047Y-88864794D01*
X133744047Y-88864794D02*
X133925476Y-88804318D01*
X133925476Y-88804318D02*
X134046428Y-88804318D01*
X134046428Y-88804318D02*
X134227857Y-88864794D01*
X134227857Y-88864794D02*
X134288333Y-88925270D01*
X134772142Y-88925270D02*
X134832618Y-88864794D01*
X134832618Y-88864794D02*
X134953571Y-88804318D01*
X134953571Y-88804318D02*
X135255952Y-88804318D01*
X135255952Y-88804318D02*
X135376904Y-88864794D01*
X135376904Y-88864794D02*
X135437380Y-88925270D01*
X135437380Y-88925270D02*
X135497857Y-89046222D01*
X135497857Y-89046222D02*
X135497857Y-89167175D01*
X135497857Y-89167175D02*
X135437380Y-89348603D01*
X135437380Y-89348603D02*
X134711666Y-90074318D01*
X134711666Y-90074318D02*
X135497857Y-90074318D01*
X121288333Y-86453365D02*
X121227857Y-86513842D01*
X121227857Y-86513842D02*
X121046428Y-86574318D01*
X121046428Y-86574318D02*
X120925476Y-86574318D01*
X120925476Y-86574318D02*
X120744047Y-86513842D01*
X120744047Y-86513842D02*
X120623095Y-86392889D01*
X120623095Y-86392889D02*
X120562618Y-86271937D01*
X120562618Y-86271937D02*
X120502142Y-86030032D01*
X120502142Y-86030032D02*
X120502142Y-85848603D01*
X120502142Y-85848603D02*
X120562618Y-85606699D01*
X120562618Y-85606699D02*
X120623095Y-85485746D01*
X120623095Y-85485746D02*
X120744047Y-85364794D01*
X120744047Y-85364794D02*
X120925476Y-85304318D01*
X120925476Y-85304318D02*
X121046428Y-85304318D01*
X121046428Y-85304318D02*
X121227857Y-85364794D01*
X121227857Y-85364794D02*
X121288333Y-85425270D01*
X122497857Y-86574318D02*
X121772142Y-86574318D01*
X122134999Y-86574318D02*
X122134999Y-85304318D01*
X122134999Y-85304318D02*
X122014047Y-85485746D01*
X122014047Y-85485746D02*
X121893095Y-85606699D01*
X121893095Y-85606699D02*
X121772142Y-85667175D01*
D12*
%TO.C,TP8*%
X128360000Y-73000000D02*
G75*
G02*
X125960000Y-73000000I-1200000J0D01*
G01*
X125960000Y-73000000D02*
G75*
G02*
X128360000Y-73000000I1200000J0D01*
G01*
%TO.C,TP7*%
X138520000Y-73000000D02*
G75*
G02*
X136120000Y-73000000I-1200000J0D01*
G01*
X136120000Y-73000000D02*
G75*
G02*
X138520000Y-73000000I1200000J0D01*
G01*
%TO.C,TP6*%
X133440000Y-73000000D02*
G75*
G02*
X131040000Y-73000000I-1200000J0D01*
G01*
X131040000Y-73000000D02*
G75*
G02*
X133440000Y-73000000I1200000J0D01*
G01*
%TO.C,TP5*%
X118200000Y-83160000D02*
G75*
G02*
X115800000Y-83160000I-1200000J0D01*
G01*
X115800000Y-83160000D02*
G75*
G02*
X118200000Y-83160000I1200000J0D01*
G01*
%TO.C,TP4*%
X118200000Y-73000000D02*
G75*
G02*
X115800000Y-73000000I-1200000J0D01*
G01*
X115800000Y-73000000D02*
G75*
G02*
X118200000Y-73000000I1200000J0D01*
G01*
%TO.C,TP3*%
X118200000Y-78080000D02*
G75*
G02*
X115800000Y-78080000I-1200000J0D01*
G01*
X115800000Y-78080000D02*
G75*
G02*
X118200000Y-78080000I1200000J0D01*
G01*
%TO.C,TP2*%
X123280000Y-73000000D02*
G75*
G02*
X120880000Y-73000000I-1200000J0D01*
G01*
X120880000Y-73000000D02*
G75*
G02*
X123280000Y-73000000I1200000J0D01*
G01*
%TO.C,TP1*%
X118200000Y-88240000D02*
G75*
G02*
X115800000Y-88240000I-1200000J0D01*
G01*
X115800000Y-88240000D02*
G75*
G02*
X118200000Y-88240000I1200000J0D01*
G01*
D13*
%TO.C,G\u002A\u002A\u002A*%
G36*
X113868763Y-81279115D02*
G01*
X113955689Y-81370813D01*
X113966004Y-81409710D01*
X113940292Y-81530297D01*
X113849382Y-81583845D01*
X113715624Y-81581922D01*
X113619167Y-81509292D01*
X113590606Y-81401074D01*
X113624780Y-81326034D01*
X113741237Y-81259965D01*
X113868763Y-81279115D01*
G37*
G36*
X114947553Y-81389658D02*
G01*
X114936463Y-81539446D01*
X114909526Y-81629402D01*
X114907140Y-81632140D01*
X114828215Y-81654844D01*
X114669316Y-81669505D01*
X114543417Y-81672554D01*
X114220107Y-81672554D01*
X114220107Y-81187589D01*
X114947553Y-81187589D01*
X114947553Y-81389658D01*
G37*
G36*
X114515170Y-77826847D02*
G01*
X114715262Y-77914706D01*
X114874122Y-78063011D01*
X114975639Y-78252659D01*
X115003700Y-78464547D01*
X114942195Y-78679572D01*
X114830976Y-78828052D01*
X114624428Y-78963102D01*
X114390001Y-79008118D01*
X114320883Y-78996974D01*
X114157748Y-78970671D01*
X113957725Y-78858327D01*
X113819985Y-78678657D01*
X113783539Y-78564265D01*
X113787939Y-78345690D01*
X114126870Y-78345690D01*
X114134118Y-78493215D01*
X114211191Y-78598933D01*
X114320883Y-78682766D01*
X114429533Y-78678499D01*
X114490330Y-78653728D01*
X114611175Y-78543696D01*
X114644914Y-78392630D01*
X114584652Y-78247506D01*
X114554307Y-78217837D01*
X114414942Y-78170351D01*
X114260222Y-78204855D01*
X114145442Y-78304810D01*
X114126870Y-78345690D01*
X113787939Y-78345690D01*
X113788706Y-78307577D01*
X113889167Y-78072531D01*
X114055732Y-77908874D01*
X114289956Y-77818535D01*
X114515170Y-77826847D01*
G37*
G36*
X114753591Y-79241177D02*
G01*
X114889272Y-79384234D01*
X114975971Y-79587576D01*
X115003742Y-79822494D01*
X114962638Y-80060282D01*
X114917265Y-80163827D01*
X114762930Y-80332191D01*
X114545716Y-80424751D01*
X114299472Y-80438802D01*
X114058044Y-80371640D01*
X113879921Y-80246709D01*
X113782807Y-80115370D01*
X113741793Y-79948589D01*
X113737071Y-79811228D01*
X113753069Y-79617614D01*
X113791259Y-79464994D01*
X113812847Y-79424341D01*
X113913627Y-79330365D01*
X114049770Y-79240450D01*
X114166220Y-79189612D01*
X114185812Y-79187112D01*
X114218754Y-79237465D01*
X114221015Y-79358433D01*
X114197984Y-79504881D01*
X114155050Y-79631674D01*
X114127715Y-79673691D01*
X114067481Y-79801361D01*
X114103806Y-79914558D01*
X114212056Y-79995504D01*
X114367593Y-80026422D01*
X114545782Y-79989536D01*
X114557990Y-79984172D01*
X114667669Y-79891348D01*
X114702756Y-79773578D01*
X114655942Y-79674348D01*
X114614141Y-79650154D01*
X114560322Y-79580833D01*
X114528385Y-79453174D01*
X114521932Y-79314461D01*
X114544564Y-79211979D01*
X114578872Y-79187112D01*
X114753591Y-79241177D01*
G37*
G36*
X114947553Y-82218138D02*
G01*
X114557098Y-82218138D01*
X114312130Y-82227108D01*
X114171127Y-82259348D01*
X114117776Y-82322855D01*
X114135465Y-82424840D01*
X114187456Y-82480603D01*
X114306009Y-82510789D01*
X114516093Y-82521065D01*
X114560006Y-82521241D01*
X114947553Y-82521241D01*
X114947553Y-82945585D01*
X114591253Y-82945585D01*
X114347416Y-82959485D01*
X114200520Y-83004371D01*
X114154042Y-83043075D01*
X114120466Y-83146341D01*
X114194123Y-83230175D01*
X114361588Y-83287000D01*
X114609436Y-83309239D01*
X114625727Y-83309308D01*
X114812117Y-83312678D01*
X114907639Y-83334230D01*
X114942661Y-83391124D01*
X114947553Y-83491169D01*
X114947553Y-83673031D01*
X113795764Y-83673031D01*
X113795764Y-83496221D01*
X113818999Y-83360591D01*
X113871539Y-83291627D01*
X113916915Y-83251147D01*
X113871539Y-83183520D01*
X113814106Y-83056968D01*
X113798225Y-82883325D01*
X113825018Y-82724098D01*
X113862000Y-82661114D01*
X113897051Y-82567118D01*
X113862000Y-82471114D01*
X113812618Y-82317677D01*
X113795764Y-82164941D01*
X113829191Y-81997705D01*
X113938079Y-81884706D01*
X114135338Y-81819201D01*
X114433879Y-81794448D01*
X114506388Y-81793795D01*
X114947553Y-81793795D01*
X114947553Y-82218138D01*
G37*
G36*
X113082355Y-84099254D02*
G01*
X113218135Y-84111094D01*
X113286242Y-84142198D01*
X113313457Y-84201871D01*
X113321928Y-84260578D01*
X113363184Y-84382924D01*
X113473649Y-84454375D01*
X113553187Y-84478386D01*
X113701672Y-84524734D01*
X113790297Y-84567486D01*
X113795669Y-84572820D01*
X113937135Y-84675729D01*
X114157653Y-84743718D01*
X114379308Y-84764200D01*
X114624247Y-84798933D01*
X114771784Y-84904272D01*
X114824282Y-85081927D01*
X114824384Y-85086543D01*
X114792692Y-85167759D01*
X114720227Y-85165927D01*
X114384868Y-85076319D01*
X114149293Y-85032011D01*
X114001681Y-85030932D01*
X113979746Y-85036320D01*
X113869095Y-85038316D01*
X113827598Y-85009148D01*
X113739113Y-84956842D01*
X113609483Y-84950700D01*
X113501271Y-84988470D01*
X113475196Y-85021838D01*
X113416723Y-85066622D01*
X113329154Y-85028146D01*
X113241535Y-84929537D01*
X113182913Y-84793926D01*
X113181575Y-84788028D01*
X113153873Y-84697698D01*
X113136956Y-84709517D01*
X113136110Y-84718735D01*
X113099502Y-84812117D01*
X113026408Y-84803458D01*
X112947076Y-84703580D01*
X112847071Y-84606457D01*
X112763082Y-84582339D01*
X112662528Y-84537879D01*
X112643974Y-84468168D01*
X112592772Y-84361496D01*
X112522732Y-84322292D01*
X112424141Y-84255959D01*
X112401491Y-84193981D01*
X112421611Y-84143383D01*
X112497454Y-84113755D01*
X112652246Y-84100118D01*
X112852119Y-84097375D01*
X113082355Y-84099254D01*
G37*
G36*
X112174164Y-79843237D02*
G01*
X112441601Y-79857753D01*
X112606517Y-79879767D01*
X112687576Y-79913011D01*
X112704594Y-79949323D01*
X112757378Y-80017638D01*
X112856145Y-80035799D01*
X112972330Y-80072727D01*
X113011213Y-80155672D01*
X112954899Y-80242877D01*
X112947076Y-80247971D01*
X112894831Y-80334098D01*
X112886456Y-80394334D01*
X112906380Y-80455373D01*
X112982518Y-80495998D01*
X113139417Y-80525060D01*
X113295644Y-80541877D01*
X113543806Y-80559160D01*
X113859898Y-80572557D01*
X114190625Y-80580049D01*
X114326193Y-80580953D01*
X114947553Y-80581384D01*
X114947553Y-81060851D01*
X113917005Y-81023827D01*
X113541737Y-81010928D01*
X113270691Y-81004236D01*
X113086943Y-81005090D01*
X112973570Y-81014830D01*
X112913650Y-81034795D01*
X112890260Y-81066323D01*
X112886456Y-81105383D01*
X112916763Y-81236692D01*
X112949898Y-81287404D01*
X112981438Y-81383216D01*
X112973700Y-81575869D01*
X112951831Y-81732788D01*
X112918741Y-81974054D01*
X112918737Y-82120026D01*
X112957459Y-82193502D01*
X113040546Y-82217281D01*
X113071895Y-82218138D01*
X113170661Y-82262736D01*
X113189558Y-82339379D01*
X113164172Y-82437886D01*
X113128938Y-82460620D01*
X113075156Y-82509720D01*
X113068317Y-82551551D01*
X113118523Y-82626126D01*
X113185196Y-82642482D01*
X113257940Y-82664404D01*
X113303873Y-82748392D01*
X113336408Y-82921775D01*
X113341403Y-82960740D01*
X113361181Y-83209790D01*
X113364828Y-83463499D01*
X113360921Y-83549374D01*
X113337491Y-83724398D01*
X113287031Y-83815986D01*
X113189558Y-83861589D01*
X113088075Y-83892396D01*
X113100030Y-83904943D01*
X113174403Y-83909470D01*
X113280989Y-83937096D01*
X113310799Y-83976134D01*
X113255834Y-84015202D01*
X113110288Y-84033432D01*
X112903185Y-84029836D01*
X112663549Y-84003423D01*
X112636600Y-83999108D01*
X112417054Y-83962796D01*
X112424428Y-83287484D01*
X112428553Y-82994301D01*
X112436251Y-82801998D01*
X112451979Y-82690218D01*
X112480198Y-82638603D01*
X112525367Y-82626795D01*
X112568198Y-82631137D01*
X112675088Y-82619167D01*
X112704594Y-82525586D01*
X112704594Y-82525051D01*
X112681238Y-82437975D01*
X112589222Y-82403668D01*
X112500000Y-82400000D01*
X112356103Y-82414588D01*
X112287264Y-82481733D01*
X112257544Y-82589306D01*
X112221498Y-82712644D01*
X112173122Y-82733430D01*
X112135805Y-82709000D01*
X112068079Y-82679073D01*
X112058014Y-82674626D01*
X112016440Y-82731866D01*
X111946384Y-82810346D01*
X111846583Y-82790365D01*
X111729771Y-82687015D01*
X111608682Y-82515389D01*
X111522494Y-82343360D01*
X111496051Y-82290580D01*
X111464500Y-82199869D01*
X111717511Y-82199869D01*
X111792849Y-82283176D01*
X111855907Y-82347596D01*
X112068079Y-82562434D01*
X112106372Y-82405441D01*
X112145628Y-82198939D01*
X112138197Y-82062425D01*
X112098389Y-81975656D01*
X112059612Y-81945046D01*
X112041563Y-82017574D01*
X112038697Y-82112052D01*
X112031901Y-82272427D01*
X111994988Y-82327573D01*
X111900494Y-82292271D01*
X111808308Y-82236069D01*
X111723962Y-82187207D01*
X111717511Y-82199869D01*
X111464500Y-82199869D01*
X111404611Y-82027683D01*
X111396340Y-81996886D01*
X111331457Y-81704585D01*
X111326786Y-81642243D01*
X111492184Y-81642243D01*
X111522494Y-81672554D01*
X111552804Y-81642243D01*
X111522494Y-81611933D01*
X111492184Y-81642243D01*
X111326786Y-81642243D01*
X111316088Y-81499465D01*
X111350541Y-81357902D01*
X111405583Y-81282850D01*
X111523415Y-81196911D01*
X111593073Y-81221753D01*
X111613425Y-81338281D01*
X111657185Y-81475815D01*
X111799637Y-81611122D01*
X111841035Y-81639597D01*
X112035378Y-81734960D01*
X112199394Y-81755579D01*
X112308841Y-81703137D01*
X112340871Y-81604863D01*
X112380452Y-81514217D01*
X112492422Y-81490692D01*
X112614311Y-81459073D01*
X112643974Y-81399761D01*
X112676707Y-81319089D01*
X112704594Y-81308830D01*
X112734615Y-81252112D01*
X112755711Y-81097265D01*
X112765013Y-80867250D01*
X112765215Y-80823866D01*
X112760496Y-80572381D01*
X112743923Y-80421581D01*
X112711871Y-80351190D01*
X112678500Y-80338902D01*
X112603373Y-80287299D01*
X112572414Y-80202506D01*
X112553140Y-80133311D01*
X112502190Y-80090837D01*
X112393529Y-80066883D01*
X112201124Y-80053248D01*
X112083234Y-80048405D01*
X111613425Y-80030700D01*
X111613425Y-80548524D01*
X111610823Y-80800810D01*
X111599658Y-80955242D01*
X111574890Y-81035155D01*
X111531477Y-81063885D01*
X111501579Y-81066348D01*
X111350453Y-81014433D01*
X111245451Y-80881975D01*
X111195758Y-80703912D01*
X111210560Y-80515179D01*
X111299042Y-80350711D01*
X111310322Y-80338902D01*
X111401610Y-80200536D01*
X111431563Y-80080692D01*
X111457080Y-79966576D01*
X111544329Y-79891631D01*
X111709358Y-79850727D01*
X111968215Y-79838732D01*
X112174164Y-79843237D01*
G37*
D14*
%TO.C,IC1*%
X135525000Y-76395000D02*
X137050000Y-76395000D01*
X137400000Y-76550000D02*
X140600000Y-76550000D01*
X137400000Y-81450000D02*
X137400000Y-76550000D01*
X140600000Y-76550000D02*
X140600000Y-81450000D01*
X140600000Y-81450000D02*
X137400000Y-81450000D01*
%TO.C,IC2*%
X124700000Y-79150000D02*
X123300000Y-79150000D01*
X122950000Y-79000000D02*
X122550000Y-79000000D01*
X122950000Y-76100000D02*
X122950000Y-79000000D01*
X122550000Y-79000000D02*
X122550000Y-76100000D01*
X122550000Y-76100000D02*
X122950000Y-76100000D01*
%TO.C,R4*%
X142525000Y-85000000D02*
X141475000Y-85000000D01*
%TO.C,R3*%
X140525000Y-89500000D02*
X139475000Y-89500000D01*
D12*
%TO.C,R2*%
X133500000Y-86040000D02*
X133500000Y-85270000D01*
X132130000Y-85270000D02*
X134870000Y-85270000D01*
X134870000Y-85270000D02*
X134870000Y-78730000D01*
X132130000Y-78730000D02*
X132130000Y-85270000D01*
X134870000Y-78730000D02*
X132130000Y-78730000D01*
X133500000Y-77960000D02*
X133500000Y-78730000D01*
D14*
%TO.C,R1*%
X135975000Y-85000000D02*
X137025000Y-85000000D01*
%TO.C,IC3*%
X131030000Y-86500000D02*
X131030000Y-88600000D01*
X131030000Y-88600000D02*
X124530000Y-88600000D01*
X124530000Y-88600000D02*
X124530000Y-86500000D01*
D15*
X124605000Y-90800000D02*
G75*
G02*
X124355000Y-90800000I-125000J0D01*
G01*
X124355000Y-90800000D02*
G75*
G02*
X124605000Y-90800000I125000J0D01*
G01*
D14*
%TO.C,C2*%
X137050000Y-91250000D02*
G75*
G02*
X136950000Y-91250000I-50000J0D01*
G01*
X136950000Y-91250000D02*
G75*
G02*
X137050000Y-91250000I50000J0D01*
G01*
%TO.C,C1*%
X121550000Y-90850000D02*
G75*
G02*
X121450000Y-90850000I-50000J0D01*
G01*
X121450000Y-90850000D02*
G75*
G02*
X121550000Y-90850000I50000J0D01*
G01*
%TD*%
M02*
